# xmcd
#
# Track frame offsets:
#	150
#	12952
#	24722
#	42412
#	57435
#	68022
#	82117
#	102197
#	115382
#	133055
#	150445
#	164567
#	178400
#	193365
#	207157
#	220957
#	235175
#
# Disc length: 3503 seconds
#
# Revision: 0
# Processed by: cddbd v1.5.2PL0 Copyright (c) Steve Scherf et al.
# Submitted via: EasyCDDAExtractor 16.0.6.1
#
DISCID=fc0dad11
DTITLE=Συλλογικός δίσκος - Ρεμπέτικο στου Θωμά 4-Δελτίο ταυτότητας
DYEAR=2001
DGENRE=Ποικίλη
TTITLE0=Χριστοπούλου Χρυσούλα - Τι σε μέλλει εσένανε [παραδοσιακό]
TTITLE1=Μαραγκόπουλος Νίκος-Δασκαλάκη Ειρήνη - Καλαματιανή [Οδ. Μοσχονάς-Χρυσα
TTITLE1=φέλης]
TTITLE2=Δασκαλάκη Ειρήνη - Ξανθή Εβραιοπούλα [Σ. Παντελίδης]
TTITLE3=Μαραγκόπουλος Νίκος - Πολίτισσα [Μ. Βαμβακάρης]
TTITLE4=Δασκαλάκη Ειρήνη - Αλεξανδριανή [Μ. Βαμβακάρης]
TTITLE5=Χριστοπούλου Χρυσούλα - Φραγκοσυριανή [Μ. Βαμβακάρης]
TTITLE6=Μαραγκόπουλος Νίκος - Πασαλιμανιώτισσα [Π. Τούντας]
TTITLE7=Τσίγκος Κώστας - Αθηναίϊσσα [Α. Δελιάς]
TTITLE8=Χορωδία - Φαληριώτισσα [Γ. Παπαϊωάννου-Ευάγγ. Γρυπάρης]
TTITLE9=Δασκαλάκη Ειρήνη - Το χασαπάκι [Κ. Σκαρβέλλης]
TTITLE10=Ξηντάρης Γιώργος-Χριστοπούλου Χρυσούλα - Το μαναβάκι [Π. Τούντας-Δ. Α
TTITLE10=ρμπατζόγλου]
TTITLE11=Μπαγιώκης Γιώργος - Τα τσαγκαράκια [Μ. Βαμβακάρης-Σ. Παγιουμτζής]
TTITLE12=Μπαγιώκης Γιώργος - Σωφεράκι [Κ. Ρούκουνας]
TTITLE13=Χορωδία - Μοδιστρούλα [Γ. Παπαϊωάννου-Κ. Μάνεσης]
TTITLE14=Τσαουσάκης Δημήτρης - Ο νοικοκύρης [Β. Τσιτσάνης-Ν. Μάθεσης]
TTITLE15=Άνευ ερμηνευτού - Τάνγκο Γκρέκο [ορχηστρ., Παναγιώτου]
TTITLE16=Χορωδία - Ο μπουφετζής [Γ. Μπάτης-Γ. Παπαϊωάννου-Κ. Φέρρης]
EXTD=
EXTT0=
EXTT1=
EXTT2=
EXTT3=
EXTT4=
EXTT5=
EXTT6=
EXTT7=
EXTT8=
EXTT9=
EXTT10=
EXTT11=
EXTT12=
EXTT13=
EXTT14=
EXTT15=
EXTT16=
PLAYORDER=
